<svg width="42" height="42" viewBox="0 0 42 42" fill="none" xmlns="http://www.w3.org/2000/svg">
<rect width="42" height="42" rx="4.05" fill="#F9F9F9"/>
<circle cx="20.6366" cy="25.1661" r="11.6366" fill="#DCE4E5"/>
<path d="M24.8684 31.5135C30.1577 27.811 28.5709 22.5216 26.9841 19.877C27.513 21.4638 29.0631 26.2528 24.3394 29.9267C19.8719 33.4014 14.8186 29.9267 13.7607 28.8688C14.8186 31.5135 20.429 34.6211 24.8684 31.5135Z" fill="#C0C6CB"/>
<path fill-rule="evenodd" clip-rule="evenodd" d="M18.0703 6C14.9988 6 12.5088 8.48996 12.5088 11.5615C12.5088 14.633 14.9988 17.123 18.0703 17.123H19.1069C19.7632 18.0591 20.3794 18.7662 20.7789 18.8341C21.2082 18.9071 21.8705 18.1522 22.5581 17.123H23.204C26.2755 17.123 28.7654 14.633 28.7654 11.5615C28.7654 8.48996 26.2755 6 23.204 6H18.0703Z" fill="#FF6632"/>
<path d="M18.1922 12.5918L20.481 14.4313C20.5717 14.5042 20.701 14.5042 20.7918 14.4313L23.0806 12.5918C23.8432 11.9789 23.9321 10.8502 23.2748 10.1254C22.5806 9.3599 21.3399 9.50179 20.8365 10.4043L20.8062 10.4586C20.732 10.5915 20.5408 10.5915 20.4666 10.4586L20.4363 10.4043C19.9328 9.50179 18.6922 9.3599 17.998 10.1254C17.3407 10.8502 17.4296 11.9789 18.1922 12.5918Z" fill="white"/>
</svg>
