<svg width="42" height="42" viewBox="0 0 42 42" fill="none" xmlns="http://www.w3.org/2000/svg">
<rect width="42" height="42" rx="4.86" fill="#F9F9F9"/>
<path d="M20.7344 13.6277C20.8342 13.396 21.1626 13.396 21.2624 13.6277L24.1312 20.2893C24.1728 20.386 24.2639 20.4521 24.3687 20.4619L31.5907 21.1317C31.8419 21.155 31.9434 21.4674 31.7539 21.6339L26.3048 26.4208C26.2258 26.4902 26.191 26.5973 26.2141 26.7L27.8088 33.7755C27.8643 34.0216 27.5986 34.2147 27.3817 34.0859L21.1452 30.3828C21.0547 30.3291 20.9421 30.3291 20.8516 30.3828L14.6151 34.0859C14.3983 34.2147 14.1325 34.0216 14.188 33.7755L15.7827 26.7C15.8058 26.5973 15.771 26.4902 15.692 26.4208L10.2429 21.6339C10.0534 21.4674 10.1549 21.155 10.4061 21.1317L17.6281 20.4619C17.7329 20.4521 17.824 20.386 17.8656 20.2893L20.7344 13.6277Z" fill="#FFC01D"/>
<path d="M8.51034 15.6999C8.44824 15.9444 8.70867 16.1446 8.92897 16.0217L9.96355 15.4447C10.0554 15.3934 10.168 15.3965 10.257 15.4526L11.2588 16.0848C11.4722 16.2194 11.743 16.0336 11.6943 15.7861L11.4651 14.6238C11.4448 14.5206 11.4825 14.4145 11.5634 14.3472L12.4742 13.5897C12.6681 13.4284 12.5751 13.1134 12.3247 13.0833L11.1485 12.942C11.044 12.9295 10.9547 12.8609 10.9158 12.7632L10.4768 11.6628C10.3833 11.4286 10.055 11.4197 9.94898 11.6486L9.45116 12.7235C9.40695 12.819 9.31411 12.8827 9.20912 12.8896L8.02702 12.967C7.77531 12.9835 7.66539 13.2931 7.85033 13.4646L8.71884 14.2702C8.79598 14.3418 8.82786 14.4498 8.80196 14.5517L8.51034 15.6999Z" fill="#FFC01D"/>
<path d="M14.4273 9.78162C14.3651 10.0261 14.6256 10.2263 14.8459 10.1035L15.8805 9.52646C15.9724 9.47522 16.0849 9.47827 16.1739 9.53442L17.1757 10.1666C17.3891 10.3013 17.6599 10.1155 17.6112 9.86797L17.3821 8.70569C17.3618 8.60246 17.3995 8.49636 17.4804 8.42909L18.3912 7.67166C18.5852 7.51038 18.4922 7.19534 18.2417 7.16524L17.0656 7.0239C16.9611 7.01135 16.8718 6.94273 16.8329 6.845L16.394 5.74466C16.3005 5.51037 15.9722 5.50146 15.8661 5.73035L15.3683 6.80528C15.324 6.90075 15.2312 6.96443 15.1262 6.97131L13.9441 7.04869C13.6924 7.06517 13.5825 7.37471 13.7674 7.54626L14.6358 8.35194C14.713 8.4235 14.7449 8.53148 14.719 8.63346L14.4273 9.78162Z" fill="#FFC01D"/>
<path d="M23.3062 9.78195C23.2441 10.0264 23.5046 10.2266 23.7249 10.1038L24.7594 9.52671C24.8513 9.47546 24.9639 9.4785 25.0529 9.53465L26.0547 10.1668C26.2681 10.3014 26.5389 10.1156 26.4902 9.86811L26.261 8.70584C26.2407 8.60261 26.2784 8.49651 26.3593 8.42924L27.2701 7.67175C27.464 7.51046 27.371 7.19542 27.1206 7.16534L25.9444 7.02407C25.8399 7.01153 25.7506 6.94291 25.7117 6.84519L25.2727 5.74488C25.1792 5.51059 24.8509 5.5017 24.7449 5.73059L24.2471 6.80555C24.2028 6.90103 24.11 6.96472 24.005 6.9716L22.8229 7.04905C22.5712 7.06555 22.4613 7.37509 22.6462 7.54664L23.5147 8.35227C23.5919 8.42382 23.6238 8.5318 23.5979 8.63378L23.3062 9.78195Z" fill="#FFC01D"/>
<path d="M30.5094 14.8486C30.4473 15.0931 30.7077 15.2933 30.928 15.1704L31.9626 14.5934C32.0545 14.5421 32.167 14.5452 32.256 14.6013L33.2579 15.2335C33.4712 15.3681 33.7421 15.1822 33.6933 14.9348L33.4642 13.7725C33.4438 13.6693 33.4815 13.5632 33.5624 13.4959L34.4732 12.7384C34.6671 12.5771 34.5741 12.2621 34.3237 12.232L33.1475 12.0907C33.043 12.0782 32.9538 12.0096 32.9148 11.9118L32.4758 10.8115C32.3824 10.5772 32.054 10.5684 31.948 10.7972L31.4502 11.8722C31.406 11.9677 31.3131 12.0314 31.2081 12.0382L30.026 12.1157C29.7743 12.1322 29.6644 12.4417 29.8493 12.6133L30.7179 13.4189C30.795 13.4905 30.8269 13.5984 30.801 13.7004L30.5094 14.8486Z" fill="#FFC01D"/>
</svg>
