<svg width="42" height="42" viewBox="0 0 42 42" fill="none" xmlns="http://www.w3.org/2000/svg">
<rect width="42" height="42" rx="4.05" fill="#F9F9F9"/>
<path d="M28.6374 19.4587L25.026 12.9683L20.5854 19.4593L20.5801 19.461L20.5749 19.4587L16.1343 12.9678L12.5229 19.4587C10.1561 17.0349 7.95312 15.4823 7.95312 15.4823C7.95312 15.4823 9.25208 22.5518 9.25208 29.3665H31.9082C31.9082 22.5518 33.2072 15.4823 33.2072 15.4823C33.2072 15.4823 31.0042 17.0349 28.6374 19.4587Z" fill="#FFD873"/>
<path d="M20.6105 25.7679C21.6067 25.7679 22.4144 24.9603 22.4144 23.964C22.4144 22.9678 21.6067 22.1602 20.6105 22.1602C19.6143 22.1602 18.8066 22.9678 18.8066 23.964C18.8066 24.9603 19.6143 25.7679 20.6105 25.7679Z" fill="#E67060"/>
<path d="M32.4229 31H8.98535C8.5541 31 8.2041 30.4413 8.2041 29.75C8.2041 29.0587 8.5541 28.5 8.98535 28.5H32.4229C32.8549 28.5 33.2041 29.0587 33.2041 29.75C33.2041 30.4413 32.8549 31 32.4229 31Z" fill="#D0B25E"/>
<path d="M8.06392 16.83C8.65151 16.83 9.12785 16.3537 9.12785 15.7661C9.12785 15.1785 8.65151 14.7021 8.06392 14.7021C7.47633 14.7021 7 15.1785 7 15.7661C7 16.3537 7.47633 16.83 8.06392 16.83Z" fill="#D0B25E"/>
<path d="M16.1293 13.698C16.8743 13.698 17.4783 13.094 17.4783 12.349C17.4783 11.604 16.8743 11 16.1293 11C15.3842 11 14.7803 11.604 14.7803 12.349C14.7803 13.094 15.3842 13.698 16.1293 13.698Z" fill="#D0B25E"/>
<path d="M33.0981 16.83C33.6857 16.83 34.162 16.3537 34.162 15.7661C34.162 15.1785 33.6857 14.7021 33.0981 14.7021C32.5105 14.7021 32.0342 15.1785 32.0342 15.7661C32.0342 16.3537 32.5105 16.83 33.0981 16.83Z" fill="#D0B25E"/>
<path d="M25.0326 13.698C25.7776 13.698 26.3816 13.094 26.3816 12.349C26.3816 11.604 25.7776 11 25.0326 11C24.2876 11 23.6836 11.604 23.6836 12.349C23.6836 13.094 24.2876 13.698 25.0326 13.698Z" fill="#D0B25E"/>
</svg>
