<svg width="42" height="42" viewBox="0 0 42 42" fill="none" xmlns="http://www.w3.org/2000/svg">
<rect width="42" height="42" rx="4.86" fill="#F9F9F9"/>
<path d="M16.7238 12.4167H12.5572C11.7898 12.4167 11.2259 13.0208 11.4572 14.5651C11.4572 14.5651 12.4412 19.7005 12.5572 20.4722C12.6732 21.2439 13.1794 22.0833 13.9461 22.0833H16.7238C17.4905 22.0833 18.0273 21.3616 18.0273 20.4722V22.0833C18.0273 22.9727 18.8218 24.5 18.0544 24.5H13.2225C11.8912 24.5 10.6475 23.2917 10.4162 22.0495C10.3287 21.5799 9.08496 14.0278 9.08496 14.0278C8.6801 11.7118 9.77941 10 11.1683 10H16.7238C17.4905 10 18.0273 10.7218 18.0273 11.6111V13.2222C18.0273 12.3329 17.4905 12.4167 16.7238 12.4167Z" fill="#D0B25E"/>
<path d="M22.9668 25.7223C22.9668 20.1173 21.0855 25.7223 21.0855 25.7223C21.0855 25.7223 19.0022 20.1173 19.0022 25.7223C19.0022 31.3274 16.7168 33.7779 16.7168 33.7779H25.2529C25.2529 33.7779 22.9668 31.3274 22.9668 25.7223Z" fill="#D0B25E"/>
<path d="M25.1648 12.4167H29.3315C30.0988 12.4167 30.6627 13.0208 30.4315 14.5651C30.4315 14.5651 29.4475 19.7005 29.3315 20.4722C29.2155 21.2439 28.7093 22.0833 27.9426 22.0833H25.1648C24.3982 22.0833 23.8614 21.3616 23.8614 20.4722V22.0833C23.8614 22.9727 23.0669 24.5 23.8343 24.5H28.6662C29.9975 24.5 31.2412 23.2917 31.4725 22.0495C31.56 21.5799 32.8037 14.0278 32.8037 14.0278C33.2086 11.7118 32.1093 10 30.7204 10H25.1648C24.3982 10 23.8614 10.7218 23.8614 11.6111V13.2222C23.8614 12.3329 24.3982 12.4167 25.1648 12.4167Z" fill="#D0B25E"/>
<path d="M28.5 13.173C28.5 18.6948 23.8841 28 21 28C18.1152 28 13.5 18.6948 13.5 13.173C13.5 8.93891 14.1818 8.02282 15.5455 8.02282C16.4823 8.02282 19.6534 8.00082 21 8.00082L25.7727 8C27.7616 7.99919 28.5 8.55748 28.5 13.173Z" fill="#F7DD88"/>
<path d="M27.25 34.5834C27.25 35.4727 27.4076 36.1945 26.641 36.1945H15.5299C14.7625 36.1945 14.75 35.4727 14.75 34.5834V33.7779C14.75 32.8885 15.5583 32.1667 16.2819 32.1667H25.9465C26.6701 32.1667 27.25 32.8885 27.25 33.7779V34.5834Z" fill="#6C5139"/>
<path d="M28.6391 35.8923C28.6391 36.5045 28.7537 36.9999 27.7697 36.9999H14.4016C13.5044 36.9999 13.3613 36.5045 13.3613 35.8923V35.6909C13.3613 35.0787 13.8738 34.5833 14.4016 34.5833H27.7697C28.2967 34.5833 28.6391 35.0787 28.6391 35.6909V35.8923Z" fill="#483B30"/>
</svg>
