<svg width="42" height="42" viewBox="0 0 42 42" fill="none" xmlns="http://www.w3.org/2000/svg">
<rect width="42" height="42" rx="4.86" fill="#F9F9F9"/>
<path d="M34.7433 25.4679C35.3317 23.7215 35.3015 23.0175 35.4498 16.3393L5.8585 17.8715L5.85852 23.6889C6.41609 25.1453 7.7332 25.6373 9.09279 25.7941C11.549 25.9501 11.6031 25.9144 13.7162 26.0877C15.8293 26.2609 16.9892 27.0868 17.4885 28.3621C18.2374 30.275 19.6191 31.7291 20.8753 32.1383C27.664 34.3496 34.1548 27.2143 34.7433 25.4679Z" fill="#763824"/>
<path d="M28.1294 11.5667C20.974 11.9007 16.9936 12.5538 9.95402 14.5188C7.25382 15.43 6.08623 16.0329 5.82119 17.9225C5.72426 20.8552 8.58304 21.0723 13.8711 21.3665C16.0384 21.5041 17.4646 21.888 18.537 23.2759C19.6094 24.6638 19.6027 25.4415 20.528 26.1886C21.9079 27.3027 25.6181 28.2715 30.7715 24.7859C33.9771 22.6178 35.8401 18.0688 35.4847 14.5267C35.0552 12.1531 33.2217 11.3291 28.1294 11.5667Z" fill="#9B4F29"/>
<path d="M30.8972 20.5412C27.6722 21.0697 23.7949 16.0611 24.1793 14.3955C24.3794 13.5284 25.2709 13.2546 28.7509 13.2193C30.4873 13.1384 31.8579 13.325 32.9098 14.6442C33.8377 16.0229 33.12 19.8025 30.8972 20.5412Z" fill="#CE8059"/>
<path d="M20.251 21.2638C24.2921 19.6422 25.1794 16.0144 22.1552 14.6798C19.5435 13.5272 15.8566 14.4921 11.2469 15.7907C7.98812 16.7088 7.85378 18.9874 10.7183 19.4108C13.411 19.5261 14.8849 19.6106 16.5906 20.2789C18.5939 21.3558 19.3777 21.213 20.251 21.2638Z" fill="#CE8059"/>
<path d="M24.9368 25.2956C19.8799 24.9746 18.8088 23.5658 24.1241 19.8181C24.8833 19.2828 25.4522 19.4626 26.958 20.878C28.3472 21.846 29.8198 21.4996 29.7549 22.522C29.69 23.5444 27.2484 25.4424 24.9368 25.2956Z" fill="#CE8059"/>
</svg>
