<svg width="48" height="48" viewBox="0 0 48 48" fill="none" xmlns="http://www.w3.org/2000/svg">
<rect width="48" height="48" rx="5.55429" fill="#F9F9F9"/>
<path d="M29.8465 38.279C30.723 37.9156 32.4749 37.2721 31.8836 34.2624L31.0155 29.8448C30.8529 29.0166 29.9256 28.8261 28.9004 28.4252C28.0096 28.0764 25.8323 26.8195 25.0344 22.7605C24.3379 19.2121 24.6168 13.5094 24.6979 12.1319L28.6092 11.4005L32.5205 10.6691C33.0948 11.9247 35.4164 17.1399 36.0497 20.7006C36.7734 24.7734 35.1974 26.7324 34.4931 27.3798C33.6822 28.1237 32.8863 28.6364 33.0344 29.4673C33.1817 30.2983 33.2864 30.8796 33.8222 33.9001C34.3587 36.9196 36.2251 36.8861 37.1735 36.908C38.9741 36.9492 39.1749 38.397 38.3165 38.5488C37.4565 38.7024 33.8438 39.3835 33.8438 39.3835C33.8438 39.3835 30.2287 40.0552 29.3722 40.2224C28.5185 40.3912 28.1828 38.9692 29.8465 38.279V38.279Z" fill="#9FC6CB"/>
<path d="M25.9115 14.7777C26.256 14.964 28.023 15.7622 30.0876 15.7909C31.5198 15.8111 33.272 15.5068 33.6284 16.4444C34.3473 18.3338 34.8638 19.1113 35.1737 20.8562C35.7613 24.1604 34.7194 25.8466 34.0738 26.5418L34.056 26.5595C33.9764 26.6334 33.1986 27.3188 31.6624 27.6062C30.1366 27.8921 29.1335 27.5468 29.018 27.5038C29.0056 27.4995 29.0019 27.4971 28.9903 27.4919C28.1364 27.0764 26.558 25.8807 25.9115 22.5892C25.4354 20.1627 25.5015 17.5164 25.5676 15.2069C25.5717 15.03 25.567 14.5915 25.9115 14.7777Z" fill="#FFE9B2"/>
<path d="M18.4682 38.2803C17.5917 37.917 15.8398 37.2734 16.4311 34.2637L17.2992 29.8461C17.4618 29.0179 18.3892 28.8274 19.4143 28.4265C20.3051 28.0777 22.4824 26.8209 23.2804 22.7619C23.9768 19.2134 23.6979 13.5107 23.6168 12.1332L19.7055 11.4018L15.7925 10.6695C15.2183 11.925 12.8966 17.1403 12.2633 20.701C11.5397 24.7738 13.1156 26.7328 13.8199 27.3801C14.6308 28.1241 15.4268 28.6367 15.2786 29.4677C15.1314 30.2987 15.0267 30.8799 14.4909 33.9004C13.9543 36.92 12.088 36.8864 11.1395 36.9084C9.33891 36.9495 9.13813 38.3974 9.99652 38.5492C10.8565 38.7028 14.4693 39.3838 14.4693 39.3838C14.4693 39.3838 18.0844 40.0556 18.9408 40.2228C19.7962 40.3925 20.132 38.9697 18.4682 38.2803V38.2803Z" fill="#9FC6CB"/>
<path d="M22.4028 14.7777C22.0583 14.964 20.2922 15.7623 18.2267 15.791C16.7945 15.812 15.0432 15.5078 14.6868 16.4445C13.9679 18.3339 13.4505 19.1131 13.1407 20.858C12.553 24.1622 13.5949 25.8484 14.2405 26.5436L14.2583 26.5613C14.338 26.6352 15.1158 27.3206 16.6519 27.608C18.1778 27.8939 19.1808 27.5486 19.2964 27.5056C19.3088 27.5013 19.3124 27.4989 19.324 27.4937C20.1779 27.0782 21.7563 25.8825 22.4028 22.591C22.8789 20.1644 22.8137 17.5165 22.7476 15.2069C22.7427 15.03 22.7473 14.5915 22.4028 14.7777Z" fill="#FFE9B2"/>
</svg>
