<svg xmlns="http://www.w3.org/2000/svg" width="32" height="32" viewBox="0 0 32 32">
    <path fill="none" fill-rule="evenodd" stroke="#000" stroke-width="1.5" d="M7.275 7.888C7.966 7.11 8.528 6.58 8.962 6.3c.65-.421 1.36-.421 2.029.133.669.553 2.885 2.95 3.273 3.48.388.532.388 1.02.077 1.581-.312.562-1.775 1.716-2.062 2.056-.287.34-.287.686.1 1.121.305.342.958 1.359 2.493 2.856.701.684 2.092 1.848 2.668 2.318.575.47 1.02.7 1.558.195.537-.506 1.568-1.709 2.019-1.978.45-.27.858-.362 1.54.162.683.524 2.692 2.534 3.198 3.275.506.742.78 1.232.282 1.829-.498.597-1.158 1.258-1.774 1.778-.615.52-1.93 1.485-5.103.395s-5.705-2.907-7.982-5.306-3.582-4.695-4.513-7.572c-.62-1.918-.45-3.497.51-4.736z"/>
</svg>
