<svg width="24" height="24" viewBox="0 0 24 24" fill="none" xmlns="http://www.w3.org/2000/svg">
                            <path fill-rule="evenodd" clip-rule="evenodd" d="M6.9165 8.08333C6.9165 7.34695 7.51346 6.75 8.24984 6.75C8.98622 6.75 9.58317 7.34695 9.58317 8.08333C9.58317 8.81971 8.98622 9.41667 8.24984 9.41667C7.51346 9.41667 6.9165 8.81971 6.9165 8.08333ZM5.63099 7H3.4165C3.00229 7 2.6665 7.33579 2.6665 7.75C2.6665 8.16421 3.00229 8.5 3.4165 8.5H5.44693C5.64843 9.86726 6.82658 10.9167 8.24984 10.9167C9.67309 10.9167 10.8512 9.86726 11.0527 8.5H20.5832C20.9974 8.5 21.3332 8.16421 21.3332 7.75C21.3332 7.33579 20.9974 7 20.5832 7H10.8687C10.4432 5.97269 9.43094 5.25 8.24984 5.25C7.06873 5.25 6.05643 5.97269 5.63099 7Z" fill="black"></path>
                            <path fill-rule="evenodd" clip-rule="evenodd" d="M14.4165 16.9166C14.4165 16.1803 15.0135 15.5833 15.7498 15.5833C16.4862 15.5833 17.0832 16.1803 17.0832 16.9166C17.0832 17.653 16.4862 18.25 15.7498 18.25C15.0135 18.25 14.4165 17.653 14.4165 16.9166ZM13.131 18H3.4165C3.00229 18 2.6665 17.6642 2.6665 17.25C2.6665 16.8358 3.00229 16.5 3.4165 16.5H12.9469C13.1484 15.1327 14.3266 14.0833 15.7498 14.0833C17.1731 14.0833 18.3513 15.1327 18.5528 16.5H20.5832C20.9974 16.5 21.3332 16.8358 21.3332 17.25C21.3332 17.6642 20.9974 18 20.5832 18H18.3687C17.9432 19.0273 16.9309 19.75 15.7498 19.75C14.5687 19.75 13.5564 19.0273 13.131 18Z" fill="black"></path>
                        </svg>