<svg width="24" height="24" viewBox="0 0 24 24" fill="none" xmlns="http://www.w3.org/2000/svg">
    <path d="M11.124 19.584L11.1193 19.5769L11.1144 19.5699L7.61931 14.5769C6.62749 13.0891 5.75 11.7539 5.75 9.5C5.75 6.04822 8.54822 3.25 12 3.25C15.4518 3.25 18.25 6.04822 18.25 9.5C18.25 10.4242 18.1366 11.0807 17.8625 11.7933C17.5787 12.531 17.1172 13.3464 16.3704 14.5915L12.8856 19.5699L12.8807 19.5769L12.876 19.584C12.8018 19.6951 12.7357 19.8012 12.6716 19.9041C12.5497 20.0997 12.4351 20.2835 12.2871 20.4677C12.1269 20.6671 12.0317 20.7261 12 20.7433C11.9683 20.7261 11.8731 20.6671 11.7129 20.4677C11.5649 20.2835 11.4503 20.0997 11.3284 19.9041C11.2643 19.8012 11.1982 19.6951 11.124 19.584Z" stroke="black" stroke-width="1.5"/>
    <circle cx="12" cy="9" r="2.75" stroke="black" stroke-width="1.5"/>
</svg>
