<svg xmlns="http://www.w3.org/2000/svg" width="48" height="48" fill="none" viewBox="0 0 48 48">
    <g clip-path="url(#prefix__clip0)">
        <g filter="url(#prefix__filter0_d)">
            <path fill="#fff" fill-rule="evenodd" d="M24 48c13.255 0 24-10.745 24-24S37.255 0 24 0 0 10.745 0 24s10.745 24 24 24z" clip-rule="evenodd"/>
        </g>
        <path fill="#FF3D00" d="M23.075 35.516C16.265 25.642 15 24.629 15 21c0-4.97 4.03-9 9-9s9 4.03 9 9c0 3.629-1.264 4.642-8.075 14.516-.447.645-1.403.645-1.85 0zM24 24.75c2.071 0 3.75-1.679 3.75-3.75 0-2.071-1.679-3.75-3.75-3.75-2.071 0-3.75 1.679-3.75 3.75 0 2.071 1.679 3.75 3.75 3.75z"/>
    </g>
    <defs>
        <clipPath id="prefix__clip0">
            <path fill="#fff" d="M0 0H48V48H0z"/>
        </clipPath>
        <filter id="prefix__filter0_d" width="78" height="78" x="-15" y="-10" color-interpolation-filters="sRGB" filterUnits="userSpaceOnUse">
            <feFlood flood-opacity="0" result="BackgroundImageFix"/>
            <feColorMatrix in="SourceAlpha" values="0 0 0 0 0 0 0 0 0 0 0 0 0 0 0 0 0 0 127 0"/>
            <feOffset dy="5"/>
            <feGaussianBlur stdDeviation="7.5"/>
            <feColorMatrix values="0 0 0 0 0 0 0 0 0 0 0 0 0 0 0 0 0 0 0.05 0"/>
            <feBlend in2="BackgroundImageFix" result="effect1_dropShadow"/>
            <feBlend in="SourceGraphic" in2="effect1_dropShadow" result="shape"/>
        </filter>
    </defs>
</svg>
