<svg width="32" height="32" viewBox="0 0 32 32" fill="none" xmlns="http://www.w3.org/2000/svg">
<mask id="path-1-inside-1_207_772" fill="white">
<path fill-rule="evenodd" clip-rule="evenodd" d="M13 5C8.02944 5 4 9.02944 4 14C4 18.9706 8.02944 23 13 23H16.5823C19.708 25.7022 22.3154 27.5784 21.9997 26C21.8065 25.034 21.9119 23.7693 22.1749 22.424C25.5788 21.1404 28 17.853 28 14C28 9.02944 23.9706 5 19 5H13Z"/>
</mask>
<path fill-rule="evenodd" clip-rule="evenodd" d="M13 5C8.02944 5 4 9.02944 4 14C4 18.9706 8.02944 23 13 23H16.5823C19.708 25.7022 22.3154 27.5784 21.9997 26C21.8065 25.034 21.9119 23.7693 22.1749 22.424C25.5788 21.1404 28 17.853 28 14C28 9.02944 23.9706 5 19 5H13Z" fill="white"/>
<path d="M16.5823 23L17.4652 21.9787C17.2199 21.7667 16.9065 21.65 16.5823 21.65V23ZM21.9997 26L23.3235 25.7352L23.3235 25.7352L21.9997 26ZM22.1749 22.424L21.6986 21.1608C21.2609 21.3259 20.9398 21.7058 20.85 22.165L22.1749 22.424ZM5.35 14C5.35 9.77502 8.77502 6.35 13 6.35V3.65C7.28385 3.65 2.65 8.28385 2.65 14H5.35ZM13 21.65C8.77502 21.65 5.35 18.225 5.35 14H2.65C2.65 19.7161 7.28385 24.35 13 24.35V21.65ZM16.5823 21.65H13V24.35H16.5823V21.65ZM15.6994 24.0213C17.2624 25.3725 18.771 26.5848 19.8805 27.2589C20.1634 27.4309 20.4507 27.5866 20.728 27.7025C20.9787 27.8073 21.3444 27.9332 21.7468 27.927C22.2267 27.9195 22.8616 27.7027 23.1935 27.0383C23.4461 26.5326 23.38 26.0178 23.3235 25.7352L20.6759 26.2648C20.6983 26.3767 20.6198 26.1486 20.778 25.8318C21.0155 25.3564 21.4741 25.2309 21.7051 25.2273C21.8587 25.2249 21.9029 25.2672 21.769 25.2113C21.6617 25.1664 21.5012 25.0843 21.2826 24.9515C20.3858 24.4066 19.0279 23.3297 17.4652 21.9787L15.6994 24.0213ZM23.3235 25.7352C23.1832 25.0337 23.2463 23.9799 23.4999 22.683L20.85 22.165C20.5775 23.5587 20.4298 25.0343 20.6759 26.2648L23.3235 25.7352ZM26.65 14C26.65 17.2729 24.5941 20.069 21.6986 21.1608L22.6513 23.6872C26.5636 22.2119 29.35 18.433 29.35 14H26.65ZM19 6.35C23.225 6.35 26.65 9.77502 26.65 14H29.35C29.35 8.28385 24.7161 3.65 19 3.65V6.35ZM13 6.35H19V3.65H13V6.35Z" fill="black" mask="url(#path-1-inside-1_207_772)"/>
<rect x="11" y="16" width="8" height="1.5" rx="0.75" fill="black"/>
<rect x="11" y="11" width="10" height="1.5" rx="0.75" fill="black"/>
</svg>
