<svg width="42" height="42" viewBox="0 0 42 42" fill="none" xmlns="http://www.w3.org/2000/svg">
<rect width="42" height="42" rx="4.05" fill="#F9F9F9"/>
<rect x="18.9854" y="20.1167" width="6.41667" height="3.85" fill="#9FC6CB"/>
<rect x="18.9854" y="21.3999" width="6.41667" height="1.28333" fill="#A4F5FF"/>
<rect x="20.2695" y="16.2666" width="3.85" height="3.85" fill="#8CB3B8"/>
<rect x="20.2695" y="17.55" width="3.85" height="1.28333" fill="#82E4F0"/>
<rect x="20.2695" y="23.9668" width="3.85" height="12.8333" fill="#B8C2C4"/>
<rect x="21.5527" y="13.7" width="1.28333" height="2.56667" fill="#BABFBF"/>
<rect x="21.5527" y="9.8501" width="1.28333" height="2.56667" fill="#B0B7B8"/>
<rect x="21.5527" y="6" width="1.28333" height="2.56667" fill="#A4ADAE"/>
<rect x="25.4023" y="12.4167" width="1.28333" height="6.41667" transform="rotate(90 25.4023 12.4167)" fill="#D50219"/>
<rect x="24.1191" y="8.56641" width="1.28333" height="3.85" transform="rotate(90 24.1191 8.56641)" fill="#D50219"/>
<path d="M24.8871 26.943L19.3418 36.8002L33.6011 36.8001C31.8847 34.1463 28.2142 28.4595 27.2636 26.943C26.313 25.4266 25.2832 26.3112 24.8871 26.943Z" fill="#1F6D49"/>
<path d="M14.8812 23.9857L8 36.8L25.6944 36.7999C23.5646 33.35 19.0099 25.9572 17.8302 23.9857C16.6506 22.0143 15.3727 23.1643 14.8812 23.9857Z" fill="#558971"/>
</svg>
