<svg width="42" height="42" viewBox="0 0 42 42" fill="none" xmlns="http://www.w3.org/2000/svg">
<rect width="42" height="42" rx="4.86" fill="#F9F9F9"/>
<path d="M28.8501 18.2734C28.607 18.1329 28.2876 18.0676 27.845 18.0676C24.4101 18.0676 12.7156 22.3945 12.2195 22.5789C12.1106 22.6192 12.0152 22.6894 11.945 22.7816C11.1818 23.779 11.3326 27.4491 12.5636 29.2805C14.2592 31.8035 16.7617 32.5183 17.9661 32.6349C17.9858 32.6368 18.0326 32.6392 18.0523 32.6392C19.5651 32.6392 29.3351 26.0701 30.0687 24.5604C30.9125 22.8249 30.8571 19.4326 28.8501 18.2734Z" fill="#DCE4E6"/>
<path d="M26.6874 19.3629C24.2043 21.2194 18.6172 24.9324 18.6172 24.9324C18.1739 26.2573 17.4234 30.0952 18.1528 32.6392C20.1952 32.1782 29.3531 25.9528 30.0658 24.4794C30.7083 23.152 30.8325 20.8691 29.9851 19.3233C28.8999 18.6847 27.7384 18.577 26.6874 19.3629Z" fill="#C0C6CB"/>
<path d="M33.6372 14.592C33.4498 14.4162 33.1906 14.3369 32.9389 14.3799L8.69212 18.369C8.2852 18.4359 7.99053 18.7932 8.00126 19.2051C8.02272 20.0388 8.01694 20.6463 8.00951 21.3289C8.00539 21.7085 8.00126 22.1113 8.00126 22.5876C8.00126 22.8327 8.11021 23.0663 8.29923 23.2231C9.97725 24.6156 15.4917 28.3051 16.7455 28.9324C16.8619 28.9902 16.989 29.0191 17.1144 29.0191C17.2927 29.0191 17.471 28.9613 17.6179 28.8482C19.7276 27.2247 31.2229 20.652 33.0223 19.872C33.2988 19.7524 33.4886 19.4899 33.5159 19.1894C33.619 18.057 33.8939 15.2762 33.8939 15.2762C33.9186 15.0195 33.8246 14.767 33.6372 14.592Z" fill="#E4553F"/>
<path d="M33.692 14.648C32.0247 12.7537 25.7459 10.0472 24.6811 10.001C24.6143 9.99769 24.5499 10.0026 24.4847 10.0158C16.1433 11.6782 10.6849 16.4589 8.6297 18.2591L8.28634 18.5579C8.09485 18.7229 7.99002 18.9673 8.00075 19.2198C8.01231 19.4724 8.13859 19.706 8.34411 19.8537C8.62392 20.0543 15.2081 24.7731 16.8102 25.6794C16.9373 25.7503 17.0768 25.7858 17.2163 25.7858C17.4144 25.7858 17.6116 25.714 17.7668 25.5762C20.9982 22.6881 31.8811 16.529 33.3659 15.9653C33.6193 15.8687 33.8084 15.6549 33.8736 15.3925C33.9388 15.1292 33.8711 14.851 33.692 14.648Z" fill="#FF6956"/>
</svg>
