<svg width="42" height="42" viewBox="0 0 42 42" fill="none" xmlns="http://www.w3.org/2000/svg">
<rect width="42" height="42" rx="4.86" fill="#F9F9F9"/>
<path d="M27 15.5H15L17.1981 8H25L27 15.5Z" fill="#CAE9EB"/>
<path d="M27.1875 15.3125H15V17.0607C15 17.1197 15.0064 17.1785 15.0192 17.2361L15.4518 19.1924C15.4882 19.3572 15.575 19.5064 15.7002 19.6196L18.5115 22.162C18.5402 22.188 18.5671 22.2161 18.5919 22.2459L20.0294 23.9793C20.0618 24.0184 20.0905 24.0604 20.1151 24.1048L21.0938 25.875L23.5972 22.2526C23.6209 22.2183 23.6472 22.1859 23.6759 22.1556L26.5003 19.1757C26.6169 19.0526 26.6922 18.8961 26.7154 18.728L27.1875 15.3125Z" fill="#DB4D4D"/>
<path d="M23.9375 11.25C24.4525 12.25 25.2507 14.95 24.3237 17.75" stroke="white" stroke-width="0.8125" stroke-linecap="round"/>
<rect x="15" y="33.1875" width="12.1875" height="0.8125" rx="0.40625" fill="#BBD2D3"/>
<path d="M21.0816 33.1875C21.0816 31.25 21.0816 27.8594 21.0816 26.4062C21.0816 24.2551 19.1139 22.588 18.0409 21.5625C16.5205 20.1094 15 18.6562 15 16.7188C15 14.7812 16.3515 10.099 17.0273 8H21.0816H25.1361C25.7453 9.66557 27.407 14.7201 27.1633 16.7188C26.9196 18.7174 25.6427 20.1094 24.1224 21.5625C22.8303 22.7975 21.0816 25.4375 21.0816 27.375" stroke="#BBD2D3" stroke-width="0.8125" stroke-linejoin="round"/>
</svg>
