<svg width="42" height="42" viewBox="0 0 42 42" fill="none" xmlns="http://www.w3.org/2000/svg">
<rect width="42" height="42" rx="4.86" fill="#F9F9F9"/>
<rect x="9.73242" y="16.1003" width="23.4" height="18.2" rx="1.73333" fill="#FFE9B2"/>
<rect x="8" y="16.1003" width="26" height="3.46667" rx="1.73333" fill="#FFE9B2"/>
<rect x="18.4004" y="16.1003" width="6.93333" height="18.2" fill="#E77060"/>
<rect x="9.73242" y="19.5669" width="8.66667" height="0.866667" fill="#EACC78"/>
<rect x="25.333" y="19.5669" width="7.8" height="0.866667" fill="#EACC78"/>
<rect x="18.4004" y="19.5669" width="6.93333" height="0.866667" fill="#AF4F42"/>
<mask id="mask0_2324_26803" style="mask-type:alpha" maskUnits="userSpaceOnUse" x="11" y="10" width="21" height="7">
<path d="M19.9357 16.6555C20.7724 16.6555 20.8964 16.1762 20.2103 15.5901L15.0968 11.2189C14.4106 10.6328 13.5107 10.8789 13.0953 11.766L11.5617 15.043C11.1464 15.9301 11.4918 16.6555 12.3285 16.6555H19.9357ZM22.9785 16.6555C22.1417 16.6555 22.0177 16.1762 22.7039 15.5901L27.8182 11.2189C28.5036 10.6328 29.4043 10.8789 29.8196 11.766L31.3532 15.0421C31.7678 15.9301 31.4224 16.6555 30.5856 16.6555H22.9785Z" fill="#E77060"/>
</mask>
<g mask="url(#mask0_2324_26803)">
<path d="M19.9357 16.6555C20.7724 16.6555 20.8964 16.1762 20.2103 15.5901L15.0968 11.2189C14.4106 10.6328 13.5107 10.8789 13.0953 11.766L11.5617 15.043C11.1464 15.9301 11.4918 16.6555 12.3285 16.6555H19.9357ZM22.9785 16.6555C22.1417 16.6555 22.0177 16.1762 22.7039 15.5901L27.8182 11.2189C28.5036 10.6328 29.4043 10.8789 29.8196 11.766L31.3532 15.0421C31.7678 15.9301 31.4224 16.6555 30.5856 16.6555H22.9785Z" fill="#E77060"/>
<path d="M20.9788 16.1761C14.84 16.5598 12.0264 15.3768 11.3869 14.7373L10.4277 17.1353H20.9788V16.1761Z" fill="#AF4F42"/>
<path d="M21.9372 16.1761C28.076 16.5598 30.8896 15.3768 31.5291 14.7373L32.4883 17.1353H21.9372V16.1761Z" fill="#AF4F42"/>
</g>
</svg>
